<svg xmlns="http://www.w3.org/2000/svg" xmlns:xlink="http://www.w3.org/1999/xlink" version="1.1" x="0px" y="0px" viewBox="0 0 16 20" style="enable-background:new 0 0 16 16;" xml:space="preserve"><g><path d="M8,13c-2.757,0-5-2.243-5-5V7c0-2.757,2.243-5,5-5s5,2.243,5,5v1C13,10.757,10.757,13,8,13z M8,3C5.794,3,4,4.794,4,7v1   c0,2.206,1.794,4,4,4c2.206,0,4-1.794,4-4V7C12,4.794,10.206,3,8,3z"/><path d="M0.5,4C0.224,4,0,3.776,0,3.5v-2C0,1.224,0.224,1,0.5,1h2C2.776,1,3,1.224,3,1.5S2.776,2,2.5,2H1v1.5   C1,3.776,0.776,4,0.5,4z"/><path d="M15.5,4C15.224,4,15,3.776,15,3.5V2h-1.5C13.224,2,13,1.776,13,1.5S13.224,1,13.5,1h2C15.776,1,16,1.224,16,1.5v2   C16,3.776,15.776,4,15.5,4z"/><path d="M2.5,14h-2C0.224,14,0,13.776,0,13.5v-2C0,11.224,0.224,11,0.5,11S1,11.224,1,11.5V13h1.5C2.776,13,3,13.224,3,13.5   S2.776,14,2.5,14z"/><path d="M15.5,14h-2c-0.276,0-0.5-0.224-0.5-0.5s0.224-0.5,0.5-0.5H15v-1.5c0-0.276,0.224-0.5,0.5-0.5s0.5,0.224,0.5,0.5v2   C16,13.776,15.776,14,15.5,14z"/><path d="M6.52,8C6.244,8,6.015,7.776,6.015,7.5S6.234,7,6.51,7h0.01c0.276,0,0.5,0.224,0.5,0.5S6.796,8,6.52,8z"/><path d="M9.52,8C9.244,8,9.015,7.776,9.015,7.5S9.233,7,9.51,7h0.01c0.276,0,0.5,0.224,0.5,0.5S9.796,8,9.52,8z"/><path d="M8,11c-0.456,0-0.89-0.083-1.29-0.247c-0.255-0.105-0.377-0.397-0.272-0.652C6.542,9.845,6.835,9.725,7.09,9.827   c0.558,0.23,1.263,0.23,1.819,0C9.166,9.724,9.456,9.846,9.562,10.1c0.104,0.256-0.018,0.548-0.272,0.653   C8.89,10.917,8.456,11,8,11z"/><path d="M4.014,6.528c-0.158,0-0.315-0.011-0.473-0.033C3.267,6.457,3.077,6.204,3.115,5.931s0.291-0.468,0.564-0.426   c0.766,0.107,1.56-0.158,2.12-0.711C5.968,4.625,6.116,4.42,6.223,4.207c0.124-0.248,0.425-0.346,0.671-0.224   c0.247,0.124,0.347,0.424,0.224,0.671C6.963,4.962,6.75,5.256,6.503,5.503C5.835,6.162,4.931,6.528,4.014,6.528z"/><path d="M10.648,6.349c-1.549,0-3.074-0.531-4.295-1.532c-0.213-0.175-0.245-0.49-0.07-0.704c0.174-0.213,0.49-0.245,0.704-0.07   c1.439,1.179,3.371,1.592,5.172,1.104c0.271-0.074,0.541,0.086,0.613,0.352c0.072,0.267-0.085,0.541-0.352,0.613   C11.837,6.271,11.241,6.349,10.648,6.349z"/></g><text x="0" y="31" fill="#000000" font-size="5px" font-weight="bold" font-family="'Helvetica Neue', Helvetica, Arial-Unicode, Arial, Sans-serif">Created by icon 54</text><text x="0" y="36" fill="#000000" font-size="5px" font-weight="bold" font-family="'Helvetica Neue', Helvetica, Arial-Unicode, Arial, Sans-serif">from the Noun Project</text></svg>